<?xml version="1.0" encoding="UTF-8" standalone="no"?>
<!-- Created with Inkscape (http://www.inkscape.org/) -->

<svg
   width="210mm"
   height="297mm"
   viewBox="0 0 210 297"
   version="1.1"
   id="svg1"
   xml:space="preserve"
   inkscape:version="1.4 (86a8ad7, 2024-10-11)"
   sodipodi:docname="lion.svg"
   xmlns:inkscape="http://www.inkscape.org/namespaces/inkscape"
   xmlns:sodipodi="http://sodipodi.sourceforge.net/DTD/sodipodi-0.dtd"
   xmlns="http://www.w3.org/2000/svg"
   xmlns:svg="http://www.w3.org/2000/svg"><sodipodi:namedview
     id="namedview1"
     pagecolor="#505050"
     bordercolor="#ffffff"
     borderopacity="1"
     inkscape:showpageshadow="0"
     inkscape:pageopacity="0"
     inkscape:pagecheckerboard="1"
     inkscape:deskcolor="#505050"
     inkscape:document-units="mm"
     inkscape:zoom="1.0823864"
     inkscape:cx="396.8084"
     inkscape:cy="560.7979"
     inkscape:window-width="1562"
     inkscape:window-height="1408"
     inkscape:window-x="-7"
     inkscape:window-y="0"
     inkscape:window-maximized="0"
     inkscape:current-layer="layer1" /><defs
     id="defs1" /><g
     inkscape:label="Layer 1"
     inkscape:groupmode="layer"
     id="layer1"><path
       style="fill:#000000"
       d="m 99.261672,226.03822 c -0.569173,-1.42188 -1.560551,-4.25784 -2.203062,-6.30213 -1.145914,-3.64598 -2.060368,-4.13703 -5.254945,-2.82185 -1.328526,0.54694 -1.479041,0.13036 -1.06588,-2.94998 0.70745,-5.27444 -1.659325,-10.23403 -5.686856,-11.91684 -4.09057,-1.70915 -8.025881,-1.72075 -14.494783,-0.0427 -2.793818,0.72471 -5.259713,1.13761 -5.479765,0.91755 -0.220053,-0.22005 0.267929,-1.80095 1.084405,-3.51312 l 1.484501,-3.11303 -7.142044,-0.48953 c -8.181589,-0.56078 -13.340806,-2.4224 -17.330603,-6.25348 -1.533217,-1.47222 -4.560235,-3.67718 -6.726708,-4.89991 -3.386031,-1.91103 -3.777397,-2.43617 -2.787667,-3.74056 0.633256,-0.83458 2.305076,-2.10459 3.715155,-2.82224 l 2.56378,-1.30482 -6.977586,-3.04228 c -3.837672,-1.67326 -6.977586,-3.36722 -6.977586,-3.76436 0,-0.39714 1.670409,-1.00429 3.71202,-1.34921 2.041611,-0.34493 3.940387,-0.99665 4.219504,-1.44827 0.76344,-1.23527 -3.829494,-2.10119 -8.103972,-1.52786 l -3.777086,0.50661 0.556974,-4.06357 c 0.306336,-2.23497 1.613132,-6.25288 2.90399,-8.9287 2.741596,-5.68306 2.821152,-6.06759 0.930726,-4.49868 -2.232996,1.85322 -2.766444,0.2898 -1.522567,-4.46231 1.798946,-6.8727 5.38065,-13.51134 9.91903,-18.3848 2.293771,-2.46313 4.170493,-4.57419 4.170493,-4.69124 0,-0.11705 -1.568063,-0.71392 -3.484584,-1.32636 -4.63987,-1.48273 -5.248404,-2.17833 -3.979633,-4.54905 1.022796,-1.91111 10.848357,-9.70279 13.241465,-10.5005 0.748055,-0.24935 0.151515,-1.63894 -1.72937,-4.02843 C 36.145102,91.96845 34.317205,83.457725 38.024299,77.377889 42.726091,69.666691 52.38735,69.54109 67.38499,76.996186 l 9.520853,4.732668 4.040899,-1.466171 c 7.561985,-2.743736 25.431918,-2.626708 32.837418,0.21505 0.91251,0.350161 1.40321,-0.01422 1.40321,-1.041986 0,-1.370109 0.64227,-1.49211 4.82598,-0.916703 9.02382,1.241091 18.63827,5.369826 22.53728,9.678178 1.67482,1.850662 1.72126,1.834065 6.24326,-2.231601 10.65723,-9.581764 16.55461,-7.01843 19.87292,8.637891 0.72182,3.405669 1.31966,9.173058 1.32853,12.816408 0.0144,5.90412 0.36878,7.2099 3.25986,12.01101 1.78404,2.9627 3.07431,5.55614 2.86725,5.7632 -0.20706,0.20706 -1.24858,-0.0903 -2.3145,-0.66073 -2.43558,-1.30349 -2.42332,-1.15406 0.31104,3.78956 2.02218,3.65604 3.9747,9.54744 5.59785,16.89058 0.4397,1.9892 0.2541,2.53692 -0.78718,2.32306 -1.93682,-0.3978 -2.0044,0.11938 -0.64845,4.96235 l 1.20755,4.31297 3.76661,-0.50521 c 2.70651,-0.36302 3.58037,-0.20388 3.10491,0.56545 -0.36394,0.58885 -1.36879,1.07705 -2.233,1.08488 -2.73874,0.0248 -4.13767,1.47219 -3.46657,3.58665 0.43193,1.36087 1.40132,1.97887 3.11941,1.98868 1.37101,0.008 3.11997,0.41957 3.88658,0.91499 1.04136,0.67298 0.54135,0.90437 -1.97727,0.915 -4.00687,0.0169 -9.0745,1.98318 -11.21462,4.35132 -1.47862,1.63617 -1.27046,1.70285 5.31563,1.70285 4.24475,0 7.29667,0.44224 8.01584,1.16153 0.92904,0.9292 0.0555,1.16406 -4.36754,1.17421 -6.35609,0.0146 -9.91241,0.7671 -9.1853,1.94359 1.34671,2.17903 -9.55225,14.38785 -16.32185,18.28346 -12.55168,7.22293 -13.91181,8.9199 -14.31359,17.85838 -0.27328,6.07951 -2.06436,9.83668 -6.57878,13.8004 -3.66538,3.21825 -5.12585,3.65468 -5.12585,1.53177 0,-1.11587 -1.62147,-1.43807 -8.1307,-1.61563 -13.77506,-0.37575 -17.33038,-0.11404 -20.4639,1.50636 -3.02124,1.56234 -3.02258,1.56201 -4.057098,-1.02238 z m 22.721418,-8.1498 c 8.25969,0.61926 8.78347,0.54653 11.08319,-1.53885 1.32758,-1.20385 2.68751,-3.1381 3.02207,-4.29833 1.46396,-5.07702 -12.70549,-6.34822 -23.7256,-2.12852 l -5.07377,1.94279 -1.55509,-1.88755 c -0.8553,-1.03816 -2.28341,-3.86693 -3.17356,-6.28616 -0.89016,-2.41923 -1.96751,-4.79584 -2.39411,-5.28136 -1.169781,-1.33135 -0.931215,8.97255 0.29154,12.59168 1.40324,4.15335 1.52569,4.24486 2.99368,2.23727 1.1391,-1.55782 1.35787,-1.28185 2.38805,3.01245 l 1.13408,4.72737 3.17006,-1.87038 c 2.8234,-1.66584 4.11809,-1.7993 11.83946,-1.22041 z m 18.29328,-18.41116 c 0,-3.60544 -0.0164,-3.62218 -1.62614,-1.65736 -1.40333,1.7129 -2.23093,1.90068 -6.03995,1.37047 -3.63133,-0.50547 -4.4138,-0.95228 -4.4138,-2.52038 0,-1.78138 -0.17039,-1.74275 -2.60621,0.59091 -1.43341,1.3733 -3.00148,2.49905 -3.48458,2.50167 -0.48311,0.003 -2.42923,0.94346 -4.32471,2.09075 l -3.44632,2.08599 7.62782,-0.28087 c 4.73159,-0.17423 9.21552,0.2158 11.80933,1.02723 3.69261,1.15517 4.3173,1.14008 5.34303,-0.12904 0.63884,-0.79042 1.16153,-3.07614 1.16153,-5.07937 z m -52.03645,-5.2199 c 0,-2.87956 -14.134706,-15.30184 -22.301335,-19.59953 -2.210118,-1.16307 -2.257552,-1.13606 -0.975693,0.55576 0.741049,0.97805 2.387344,2.92819 3.658433,4.33363 1.942638,2.14799 2.055248,2.55537 0.706369,2.55537 -5.594693,0 -19.744947,-12.58736 -24.199662,-21.52681 -4.989363,-10.01234 -2.309688,-20.43701 8.253985,-32.11024 l 5.128149,-5.66679 -5.113402,1.18865 c -4.007426,0.93155 -5.113402,0.94246 -5.113402,0.0504 0,-2.37843 6.670516,-9.72783 12.279262,-13.52897 3.212315,-2.17704 5.213348,-3.74145 4.446739,-3.47648 -0.766608,0.26497 -5.888946,1.85897 -11.382973,3.54221 -5.494026,1.68324 -9.989139,3.34158 -9.989139,3.6852 0,0.34361 1.045375,1.18422 2.323056,1.86802 1.27768,0.68379 2.314653,1.48621 2.304384,1.78315 -0.01027,0.29695 -1.862139,2.37042 -4.115266,4.60773 -3.530059,3.50527 -10.772625,14.98123 -9.454768,14.98123 0.252235,0 1.531206,-0.4078 2.842157,-0.90623 2.878153,-1.09427 2.895125,-0.95173 0.45596,3.82943 -1.80639,3.54081 -4.524813,14.12165 -4.560833,17.75199 -0.0093,0.93407 0.675933,1.62762 1.610004,1.62962 2.731602,0.006 7.455515,3.43935 10.500092,7.63186 l 2.890212,3.97994 -3.094416,0.48128 -3.094415,0.48128 6.442917,3.64333 c 3.833007,2.16749 5.903269,3.82335 5.110722,4.08774 -0.732707,0.24442 -3.205936,0.92255 -5.496064,1.50694 l -4.16387,1.06254 7.416148,3.17165 c 6.883201,2.94373 8.133786,3.1734 17.402356,3.19606 5.492415,0.0134 9.987528,0.15643 9.989139,0.3178 0.0016,0.16136 -0.429931,1.1022 -0.958985,2.09075 -0.870211,1.626 -0.626595,1.80358 2.555361,1.86266 1.934503,0.0359 4.353577,0.42469 5.375722,0.86392 1.022144,0.43923 1.962982,0.82799 2.09075,0.86391 0.127768,0.0359 0.232306,-0.31914 0.232306,-0.78903 z m 33.41009,-5.41791 c 0.0231,-0.63884 -0.7781,-1.16153 -1.78034,-1.16153 -1.00223,0 -2.67483,-0.91515 -3.71688,-2.03366 -1.04206,-1.11851 -1.89465,-1.60147 -1.89465,-1.07324 0,0.52823 0.8363,1.71726 1.85845,2.64229 1.02214,0.92503 1.85844,2.80182 1.85844,4.17065 0,1.36882 0.31187,2.80065 0.69305,3.18182 0.69481,0.69482 2.90326,-3.54616 2.98193,-5.72633 z m 27.34622,-2.26509 c -0.2566,-0.41519 -1.06909,-0.75488 -1.80554,-0.75488 -0.92889,0 -1.33711,1.06725 -1.33287,3.48458 l 0.006,3.48458 1.79941,-2.7297 c 0.98968,-1.50133 1.58947,-3.06939 1.33287,-3.48458 z M 97.104861,176.03219 c -1.169149,-3.88479 -1.15305,-4.64089 0.140866,-6.61565 0.803484,-1.22628 2.645721,-3.07327 4.093863,-4.10444 2.39243,-1.70355 2.86937,-1.75207 5.22041,-0.53102 2.49294,1.29476 6.09465,6.20273 9.38132,12.7837 2.49185,4.98949 5.48896,5.9019 11.93943,3.63474 2.94912,-1.03653 7.15367,-1.8846 9.34344,-1.8846 5.12256,0 5.07044,-1.28883 -0.13245,-3.27583 -5.07672,-1.93882 -8.22337,-5.1302 -7.81028,-7.92131 0.54349,-3.67218 2.82868,-4.21436 8.13732,-1.93065 3.70141,1.5923 6.20598,1.99813 11.02498,1.78644 l 6.23555,-0.27393 0.269,-7.06854 c 0.3477,-9.13645 -2.30689,-17.02457 -6.3087,-18.74638 l -2.63219,-1.13252 7.33796,-6.50456 c 4.17829,-3.70374 7.34569,-7.25375 7.35592,-8.24447 0.015,-1.4569 0.2495,-1.54776 1.44139,-0.55858 1.24816,1.03589 1.30791,0.87749 0.48521,-1.28636 -4.61935,-12.14982 -11.87676,-18.66669 -20.64064,-18.53448 -2.47334,0.0373 -5.52604,0.7421 -6.78378,1.5662 -2.15891,1.41458 -2.47204,1.37265 -5.59981,-0.74992 -5.84342,-3.96545 -20.27772,-5.53165 -30.103413,-3.26638 -2.239506,0.5163 -4.297307,0.71326 -4.572891,0.43768 -0.994362,-0.99437 5.163554,-7.436611 9.096274,-9.516287 4.76937,-2.522103 12.30339,-2.840534 17.347,-0.733183 4.42471,1.848763 4.46969,1.822123 2.23126,-1.321464 -2.91322,-4.091242 -9.21406,-6.128844 -18.63598,-6.026615 -4.34411,0.04714 -9.776944,0.613248 -12.072955,1.25803 l -4.174566,1.172332 3.585807,1.839629 c 4.154555,2.131414 3.741154,2.825503 -2.798374,4.698386 l -4.774033,1.367256 -7.305857,-5.082939 C 68.195687,84.844664 57.766509,79.786108 52.543162,79.197361 c -3.233983,-0.364516 -4.425673,-0.07257 -5.957809,1.459564 -2.791332,2.791332 -3.532284,7.958069 -1.570601,10.951974 l 1.585866,2.420339 1.933674,-3.121356 1.933674,-3.121355 0.596826,2.323056 0.596826,2.323055 1.528783,-2.907368 c 0.84083,-1.599052 2.171473,-3.153991 2.956983,-3.45542 1.196659,-0.459201 1.430508,0.464086 1.44243,5.695035 0.01815,7.963226 0.53779,8.811095 4.673254,7.625055 5.241583,-1.503266 13.939517,-1.06812 18.310768,0.91606 2.172057,0.98594 3.949195,2.22771 3.949195,2.7595 0,0.53179 -4.567016,3.25734 -10.148925,6.05677 -5.581908,2.79943 -10.415311,5.5209 -10.740895,6.04771 -0.362,0.58572 0.632631,0.95783 2.560275,0.95783 1.733736,0 3.413953,0.2617 3.733816,0.58156 0.319862,0.31987 -1.429212,2.9333 -3.886831,5.80764 -8.831872,10.32943 -13.98323,19.52197 -14.019812,25.01819 -0.03274,4.9187 2.270626,8.32577 6.481621,9.58741 3.195379,0.95736 4.241995,0.86663 7.627922,-0.66124 3.00111,-1.35422 6.066869,-1.77084 13.031009,-1.77084 7.295204,0 8.804728,-0.2212 7.588892,-1.11205 -1.875514,-1.37421 -13.11936,-3.9908 -17.278062,-4.02084 -3.925899,-0.0284 -10.006205,-1.43278 -11.148488,-2.57507 -1.387419,-1.38741 0.855966,-8.42774 4.418629,-13.8668 2.916299,-4.45227 13.306417,-15.55069 13.952962,-14.90415 0.152668,0.15267 -1.368803,3.55352 -3.381046,7.55744 -5.147456,10.24231 -5.087375,10.45754 3.078238,11.02732 7.729396,0.53935 14.623621,2.93151 22.938595,7.95924 l 5.820099,3.51918 4.666,-2.30918 c 4.28589,-2.12106 4.86501,-2.19776 7.10892,-0.94146 1.57845,0.88373 3.20179,3.27344 4.58744,6.75314 2.73965,6.87995 2.39794,9.86577 -0.57804,5.05082 -2.48498,-4.02054 -7.26591,-7.24831 -10.73608,-7.24831 -1.34513,0 -2.44568,0.18607 -2.44568,0.4135 0,0.22743 1.98621,2.37254 4.4138,4.76692 3.46605,3.41862 3.81523,4.00177 1.62614,2.7158 -1.53321,-0.90068 -4.17412,-2.66987 -5.86867,-3.93153 -1.69455,-1.26166 -3.32964,-2.04528 -3.63354,-1.74139 -0.3039,0.3039 -1.10179,-0.23163 -1.7731,-1.19006 -2.788519,-3.98116 -23.359396,-12.18391 -30.554852,-12.18391 -2.385991,0 -2.456747,0.11721 -1.206988,1.99945 1.226668,1.84746 5.175533,3.49684 18.812201,7.85759 9.390421,3.00287 25.728069,11.71553 24.420469,13.02313 -0.25964,0.25964 -2.91875,-0.74006 -5.90913,-2.22156 -7.3806,-3.6565 -16.089875,-7.06325 -16.642989,-6.51014 -1.291951,1.29195 1.110562,3.3068 5.18961,4.35223 5.100119,1.30712 20.008779,8.23775 19.282579,8.96395 -0.25371,0.25372 -3.76057,-0.75248 -7.793,-2.23599 -12.354047,-4.545 -23.89445,-6.78099 -33.349923,-6.46167 -8.539077,0.28838 -8.758513,0.66823 -1.393834,2.41279 2.299826,0.54478 5.435951,1.51236 6.969167,2.15015 2.745815,1.14223 2.690011,1.17644 -3.716889,2.27845 l -6.504555,1.11882 5.372873,0.11012 c 6.330196,0.12975 10.985304,1.85978 13.090129,4.86484 2.108078,3.0097 1.890667,3.88886 -0.575474,2.32709 -1.149912,-0.72823 -3.392845,-1.59489 -4.984295,-1.92593 l -2.893546,-0.60189 4.287379,4.46418 c 2.358058,2.4553 5.695608,7.12206 7.416776,10.37057 l 3.129398,5.9064 1.730774,-5.12673 c 1.566691,-4.6407 1.605632,-5.54255 0.410761,-9.5128 z M 121.3725,147.7504 c -0.30345,-1.51724 -1.44816,-3.65507 -2.54381,-4.75072 -2.51517,-2.51516 -6.96181,-1.97787 -12.17324,1.47089 l -3.6253,2.39911 1.81334,-3.55445 1.81334,-3.55444 -2.74251,-1.57399 c -1.50839,-0.8657 -3.35798,-3.04699 -4.11021,-4.84733 -2.252922,-5.392 -4.698897,-4.01631 -3.107381,1.74768 0.524346,1.89903 0.788106,3.94852 0.586133,4.55444 -0.652849,1.95855 -6.086089,-4.47638 -6.744964,-7.98849 -0.508928,-2.71282 -1.131479,-3.44972 -3.320613,-3.93053 -1.48184,-0.32547 -2.694254,-0.92343 -2.694254,-1.32881 0,-0.75932 7.973033,-8.40751 8.764612,-8.40751 0.243724,0 1.427534,0.9844 2.630688,2.18755 1.203155,1.20316 5.601569,3.32453 9.774259,4.71416 5.51199,1.83566 8.80051,3.61245 12.02532,6.49728 4.6972,4.202 7.47624,5.93166 11.35352,7.06637 2.17345,0.63608 2.03662,0.75515 -1.59559,1.38841 -3.28104,0.57205 -3.87921,0.98791 -3.43486,2.38795 0.64924,2.04555 -0.41029,8.28106 -1.4071,8.28106 -0.39031,0 -0.95793,-1.24138 -1.26138,-2.75863 z m -7.70755,-12.57354 c -0.30438,-0.79321 -1.68988,-1.39383 -3.21524,-1.39383 -1.67402,0 -3.11613,-0.69776 -3.84099,-1.85845 -1.20849,-1.93509 -4.43047,-2.58013 -4.43047,-0.88698 0,0.5343 1.02637,1.99783 2.28082,3.25228 2.70095,2.70095 10.17843,3.4214 9.20588,0.88698 z m 28.80428,-7.20782 c -4.83392,-7.32544 -5.29723,-10.48431 -1.73632,-11.83817 1.27324,-0.48408 2.8413,-0.71773 3.48458,-0.51922 0.64328,0.19851 2.37997,0.62807 3.85931,0.95458 l 2.68972,0.59365 -3.15433,1.57471 c -3.062,1.52863 -3.15117,1.73109 -3.04654,6.91774 0.0593,2.93867 0.0593,5.34017 0,5.33668 -0.0593,-0.003 -1.00267,-1.36248 -2.09642,-3.01997 z m -15.17898,-1.21567 c 1.72949,-4.54889 1.11712,-8.45477 -1.64913,-10.51862 l -2.55537,-1.90651 4.70082,-0.0294 c 8.79664,-0.0551 9.97519,3.49405 3.62412,10.91384 -3.81406,4.45588 -5.46323,5.07254 -4.12044,1.54073 z m 27.91245,55.74301 c 0.96349,-1.16094 0.97558,-1.61297 0.0583,-2.17986 -0.82806,-0.51177 -0.48067,-1.15849 1.22128,-2.27366 2.88793,-1.89224 3.404,-4.91749 0.58115,-3.40675 -2.82659,1.51275 -3.2864,1.13748 -1.36664,-1.11535 0.97359,-1.14251 0.0644,-0.61982 -2.02033,1.16152 -2.08476,1.78134 -4.59366,3.74157 -5.57533,4.35605 -1.72294,1.07849 -1.70427,1.18253 0.53821,2.99931 2.80622,2.27352 4.93378,2.42222 6.56333,0.45874 z m 11.09189,-44.01315 c 0,-1.90652 -0.45872,-2.84176 -1.39383,-2.84176 -0.87392,0 -1.39384,0.8823 -1.39384,2.3653 0,2.60779 -3.73973,6.92693 -5.9977,6.92693 -1.71411,0 -1.76881,0.42967 -0.38408,3.01706 1.01464,1.89588 1.19609,1.81315 5.11072,-2.33005 2.97095,-3.14443 4.05873,-5.05734 4.05873,-7.13748 z m -5.18827,1.20675 c 0.7075,-1.84372 -0.21396,-3.04444 -1.16074,-1.51252 -0.36994,0.59858 -1.70619,1.5008 -2.96945,2.00494 -2.25331,0.89924 -2.2415,0.91772 0.62374,0.97551 1.89131,0.0381 3.12703,-0.47918 3.50645,-1.46793 z m -0.45237,-45.940944 c 0.0797,-5.200644 -0.41391,-5.780577 -3.53709,-4.155294 -3.1227,1.625033 -7.36993,6.240688 -6.15444,6.688305 0.51107,0.188208 2.60182,1.356427 4.64611,2.596043 4.355,2.64078 4.93531,2.05085 5.04542,-5.129054 z m -22.23603,1.081285 c 0,-1.318115 -4.29792,-4.696033 -7.31185,-5.746695 -4.4,-1.53385 -5.21427,-0.169133 -2.99215,5.014862 l 1.84118,4.295303 4.23141,-1.441787 c 2.32728,-0.792982 4.23141,-1.747739 4.23141,-2.121683 z"
       id="path1" /></g></svg>
